<svg xmlns="http://www.w3.org/2000/svg" version="1.1" xmlns:xlink="http://www.w3.org/1999/xlink" xmlns:svgjs="http://svgjs.dev/svgjs" width="1000" height="750" viewBox="0 0 1000 750"><rect width="1000" height="750" fill="#f9e17e"></rect><g transform="matrix(0.834,0,0,0.834,82.49454545454546,145.70720311212122)"><svg viewBox="0 0 396 218" data-background-color="#f9e17e" preserveAspectRatio="xMidYMid meet" height="550" width="1000" xmlns="http://www.w3.org/2000/svg" xmlns:xlink="http://www.w3.org/1999/xlink"><g id="tight-bounds" transform="matrix(1,0,0,1,0.2400000000000091,-0.02718613133296799)"><svg viewBox="0 0 395.52 218.0532954084926" height="218.0532954084926" width="395.52"><g><svg viewBox="0 0 395.52 218.0532954084926" height="218.0532954084926" width="395.52"><g transform="matrix(1,0,0,1,0,112.33484733998276)"><svg viewBox="0 0 395.52 105.71844806850984" height="105.71844806850984" width="395.52"><g id="textblocktransform"><svg viewBox="0 0 395.52 105.71844806850984" height="105.71844806850984" width="395.52" id="textblock"><g><svg viewBox="0 0 395.52 105.71844806850984" height="105.71844806850984" width="395.52"><g transform="matrix(1,0,0,1,0,0)"><svg width="395.52" viewBox="0.533306360244751 -21.1262264251709 179.33621215820312 47.93473815917969" height="105.71844806850984" data-palette-color="#454545"><path d="M16.271 13.921l1.593-5.389 3.127 0.924-2.521 8.525-14.135-4.178c-2.583-0.764-3.85-2.24-3.8-4.43v0c-0.013-0.637 0.08-1.294 0.28-1.971v0l7.283-24.636c0.663-2.244 1.892-3.518 3.685-3.822v0c0.672-0.135 1.44-0.075 2.303 0.18v0l14.595 4.315-2.517 8.515-3.126-0.924 1.593-5.389-12.208-3.609-8.36 28.28zM35.848 5.212l8.401 1.589-1.054-17.409zM48.613 20.429l3.076 0.581-0.608 3.213-9.207-1.741 0.608-3.213 2.545 0.482-0.584-9.83-9.905-1.873-4.142 8.936 2.604 0.493-0.608 3.213-9.207-1.741 0.608-3.213 2.977 0.563 14.289-30.629 5.572 1.054zM56.14 24.625l0.349-3.251 3.013 0.324 3.154-29.321-6.015-0.647-0.607 5.638-3.44-0.371 0.955-8.878 22.878 2.461-0.955 8.878-3.49-0.375 0.607-5.637-6.016-0.648-3.154 29.321 3.102 0.334-0.349 3.251zM106.734-9.175l-0.037 3.26-3.02-0.034-0.373 32.758-4.71-0.054-13.269-28.203-0.283 24.778 3.12 0.036-0.037 3.27-10.089-0.115 0.037-3.27 3.03 0.034 0.336-29.488-3.03-0.034 0.037-3.26 7.4 0.084 13.603 28.777 0.289-25.358-3.12-0.036 0.037-3.26zM118.781-7.004l2.223 29.406 3.111-0.235 0.246 3.26-10.061 0.761-0.247-3.261 3.022-0.228-2.223-29.406-3.021 0.228-0.246-3.251 10.062-0.76 0.245 3.25zM126.583-11.272l16.938-2.688c2.087-0.331 3.556-0.159 4.405 0.516v0c0.856 0.674 1.47 2.18 1.841 4.517v0l0.55 3.467c0.286 1.804 0.116 3.178-0.511 4.121v0c-0.317 0.469-0.755 0.943-1.313 1.423-0.553 0.472-1.231 1.049-2.034 1.731v0l-9.44 8.21 1.58 9.956 3.081-0.489 0.513 3.229-9.965 1.582-0.513-3.23 2.993-0.475-4.614-29.076-2.992 0.475zM147.151-3.014l-1.264-7.97-11.902 1.889 2.433 15.328zM158.649-6.147l13.394 4.247c0.733 0.28 1.411 0.512 2.037 0.696 0.625 0.184 1.186 0.412 1.682 0.684v0c0.998 0.536 1.635 1.346 1.914 2.431v0l2.028 7.914c0.358 1.395 0.134 2.591-0.669 3.589v0c-0.658 0.898-1.671 1.523-3.04 1.873v0l-14.841 3.804-2.207-8.611 3.352-0.859 1.395 5.444 12.564-3.221-2.324-9.067-14.115-4.362c-1.246-0.348-2.302-0.766-3.171-1.252-0.868-0.486-1.449-1.304-1.744-2.453v0l-1.502-5.861c-0.468-1.828-0.355-3.195 0.342-4.103v0c0.592-0.778 1.802-1.401 3.629-1.87v0l14.056-3.603 2.205 8.602-3.352 0.859-1.395-5.444-12.148 3.114z" opacity="1" transform="matrix(1,0,0,1,0,0)" fill="#454545" class="wordmark-text-0" data-fill-palette-color="primary" id="text-0"></path></svg></g></svg></g></svg></g></svg></g><g transform="matrix(1,0,0,1,151.53434263445337,0)"><svg viewBox="0 0 92.45131473109322 105.71844806850984" height="105.71844806850984" width="92.45131473109322"><g><svg xmlns="http://www.w3.org/2000/svg" viewBox="59.41343688964844 26.425512313842773 420.7431640625 481.1214904785156" x="0" y="0" height="105.71844806850984" width="92.45131473109322" class="icon-icon-0" data-fill-palette-color="accent" id="icon-0"><path d="M286.483 189.336c1.93 0.707 5.575 0.588 9.134 0.217 4.647-0.484 6.432-5.361 3.195-8.731-2.478-2.581-5.186-5.024-7.115-5.731-4.551-1.665-9.406 0.174-10.846 4.107S281.933 187.671 286.483 189.336Z" fill="#454545" data-fill-palette-color="accent"></path><path d="M198.229 189.553c3.558 0.371 7.2 0.49 9.133-0.217 4.55-1.665 7.072-6.2 5.632-10.138s-6.3-5.772-10.846-4.107c-1.929 0.707-4.637 3.15-7.115 5.731C191.8 184.192 193.581 189.069 198.229 189.553Z" fill="#454545" data-fill-palette-color="accent"></path><path d="M324.8 278.756l-28.416-8.482a6 6 0 1 0-3.432 11.5l28.416 8.482a6 6 0 0 0 3.432-11.5Z" fill="#454545" data-fill-palette-color="accent"></path><path d="M294.381 251.433a6 6 0 0 0 0.282 11.993c0.1 0 0.194 0 0.292-0.007l32.054-1.535a6 6 0 0 0-0.574-11.987Z" fill="#454545" data-fill-palette-color="accent"></path><path d="M197.462 270.274l-28.416 8.482a6 6 0 1 0 3.431 11.5l28.416-8.482a6 6 0 1 0-3.431-11.5Z" fill="#454545" data-fill-palette-color="accent"></path><path d="M166.836 261.884l32.054 1.535c0.1 0 0.2 0.007 0.292 0.007a6 6 0 0 0 0.283-11.993L167.41 249.9a6 6 0 0 0-0.574 11.987Z" fill="#454545" data-fill-palette-color="accent"></path><path d="M247.039 421.345a32.61 32.61 0 1 0 32.611 32.61A32.647 32.647 0 0 0 247.039 421.345Zm0 12a20.627 20.627 0 0 1 18.133 10.823H228.906A20.629 20.629 0 0 1 247.039 433.345Zm8.714 39.266a8.968 8.968 0 1 0-17.678-0.112 20.653 20.653 0 0 1-11.523-16.331h40.974A20.647 20.647 0 0 1 255.753 472.611Z" fill="#454545" data-fill-palette-color="accent"></path><path d="M236.954 269.813A8.329 8.329 0 0 1 232.362 271c-1.3 0-1.679-0.3-3.272-1.73-2.13-1.912-5.349-4.8-11.285-4.8a6 6 0 0 0 0 12c1.3 0 1.68 0.3 3.272 1.731 0.209 0.187 0.432 0.385 0.663 0.588v8.33a25.183 25.183 0 1 0 50.366 0v-8.333c0.229-0.2 0.451-0.4 0.659-0.585 1.594-1.429 1.976-1.731 3.275-1.731a6 6 0 0 0 0-12c-5.937 0-9.156 2.886-11.287 4.8-1.594 1.428-1.976 1.731-3.275 1.731a8.358 8.358 0 0 1-4.6-1.186 23.237 23.237 0 0 0-3.952-1.639V254.432c1.374-0.77 3.024-1.678 5.021-2.749 10.365-5.56 2.485-21.634-9.195-12.309a2.933 2.933 0 0 1-3.661 0c-11.68-9.325-19.559 6.749-9.2 12.309 2 1.074 3.655 1.983 5.03 2.754v13.731A23.212 23.212 0 0 0 236.954 269.813Zm23.152 13.138v4.168a13.183 13.183 0 1 1-26.366 0v-4.168a19.917 19.917 0 0 0 8.583-2.406 8.294 8.294 0 0 1 3.8-1.164 6.07 6.07 0 0 0 0.8 0.059 5.935 5.935 0 0 0 0.794-0.058 8.34 8.34 0 0 1 3.792 1.164A19.954 19.954 0 0 0 260.106 282.951Z" fill="#454545" data-fill-palette-color="accent"></path><path d="M301.329 238.794c8.033 0 29.371 0 29.371-16.492 0-12.5-13.725-23.467-29.371-23.467s-29.37 10.966-29.37 23.467C271.959 238.794 293.3 238.794 301.329 238.794ZM318.7 222.3c0 0.861 0 1.837-2.887 2.882a21.953 21.953 0 0 1-3.929 0.951 12.965 12.965 0 0 0 1.85-11.428C316.805 216.912 318.7 219.737 318.7 222.3Zm-29.775-7.6a12.967 12.967 0 0 0 1.85 11.429 21.965 21.965 0 0 1-3.93-0.951c-2.886-1.045-2.886-2.021-2.886-2.882C283.959 219.737 285.853 216.912 288.925 214.706Z" fill="#454545" data-fill-palette-color="accent"></path><path d="M192.516 238.794c8.033 0 29.37 0 29.37-16.492 0-12.5-13.724-23.467-29.37-23.467S163.145 209.8 163.145 222.3C163.145 238.794 184.483 238.794 192.516 238.794Zm17.37-16.492c0 0.861 0 1.837-2.886 2.882a21.965 21.965 0 0 1-3.93 0.951 12.967 12.967 0 0 0 1.85-11.429C207.992 216.912 209.886 219.737 209.886 222.3Zm-29.775-7.595a12.965 12.965 0 0 0 1.85 11.428 21.953 21.953 0 0 1-3.929-0.951c-2.887-1.045-2.887-2.021-2.887-2.882C175.145 219.737 177.04 216.912 180.111 214.707Z" fill="#454545" data-fill-palette-color="accent"></path><path d="M479.629 338.5a17.18 17.18 0 0 0-16.24-21.4c-0.319-0.008-0.644-0.011-0.964-0.011-16.352 0-31.322 9.223-43.728 20.914 1.149-21.182-2.113-43.381-16.3-58.215a16.857 16.857 0 0 0-1.971-1.734c6.4-35.852-7.062-75.652-20.153-107.333A148.6 148.6 0 0 0 367.9 147.268c10.894-54.864-5.3-92.857-16.063-110.75a20.807 20.807 0 0 0-26.944-7.991c-12.269 6.122-34.463 20.834-49.187 51.672-9.191-1.691-18.247-2.156-28.782-2.156s-19.592 0.465-28.783 2.156c-14.724-30.838-36.918-45.55-49.187-51.672a20.8 20.8 0 0 0-26.943 7.991c-10.762 17.893-26.958 55.886-16.064 110.75a148.509 148.509 0 0 0-12.374 23.444c-14.717 35.615-29.931 81.5-16.838 120.49 6.633 19.752 20.235 39.847 38.293 57.005a50.1 50.1 0 0 0 4.212 17.016C82.79 413.587 64.962 467.915 59.782 490.174a14.163 14.163 0 0 0 13.8 17.373H420.264a14.162 14.162 0 0 0 13.8-17.373 207.287 207.287 0 0 0-14.585-40.995A17.33 17.33 0 0 0 430.41 436.25a31.265 31.265 0 0 0 0.416-8.982 94.412 94.412 0 0 0 12.307 0.855c10.091 0 18.786-1.945 25.842-5.783a17.176 17.176 0 0 0 5.109-25.891c-6.029-7.481-14.666-12.466-25.785-14.907C462.316 370.135 475.274 355.53 479.629 338.5ZM330.25 39.266a8.64 8.64 0 0 1 11.3 3.435c9.108 15.144 22.454 46.066 16.49 90.8a177.31 177.31 0 0 0-13.287-14.978c3.82-27.406-4.717-49.618-8.268-54.376A7.29 7.29 0 0 0 327.355 62c-13.811 6.943-21.963 18.98-25.824 26.124a139.47 139.47 0 0 0-13.88-5.035C300.809 57.032 319.689 44.535 330.25 39.266Zm3.372 69.015a139.866 139.866 0 0 0-21.316-14.863c2.732-4.972 8.011-12.823 16.378-18.347C331.055 81.193 334.2 93.528 333.622 108.281ZM152.293 42.7a8.64 8.64 0 0 1 11.3-3.435c10.561 5.269 29.441 17.766 42.6 43.82a139.47 139.47 0 0 0-13.88 5.035C188.453 80.977 180.3 68.94 166.488 62a7.3 7.3 0 0 0-9.132 2.15c-3.549 4.755-12.086 26.967-8.266 54.373A177.642 177.642 0 0 0 135.8 133.5C129.839 88.767 143.186 57.845 152.293 42.7Zm29.228 50.728a139.713 139.713 0 0 0-21.3 14.852c-0.579-14.751 2.567-27.085 4.935-33.206C173.466 80.578 178.767 88.445 181.521 93.429ZM108.11 287.382c-11.827-35.221 2.633-78.4 16.552-112.088 13.241-32.044 43.607-64.036 72.2-76.07a117 117 0 0 1 18.887-6.287c0.136-0.025 0.272-0.057 0.407-0.092 9.816-2.254 19.17-2.8 30.763-2.8s20.94 0.548 30.752 2.8c0.141 0.037 0.282 0.07 0.423 0.1a116.932 116.932 0 0 1 18.882 6.285c28.6 12.034 58.962 44.026 72.2 76.07 12.274 29.7 24.96 66.791 19.68 99.293a17.093 17.093 0 0 0-11.061 5.192c-14.187 14.836-17.448 37.032-16.3 58.217-12.405-11.691-27.373-20.915-43.725-20.916-0.323 0-0.644 0-0.967 0.011a17.18 17.18 0 0 0-16.24 21.4c2.492 9.749 7.808 18.7 14.521 26.71-20.417 10.952-43.708 17.8-68.17 17.8C181.015 383.006 123.553 333.37 108.11 287.382ZM311.573 390.945c-18.088 9.374-40.7 14.48-64.65 14.48-27.2 0-52.693-6.581-71.773-18.531-11.613-7.274-19.89-15.96-24.367-25.342 20.526 15.467 53.552 33.454 96.14 33.454 31.034 0 56.984-9.555 76.728-20.724 2.668 2.543 5.435 4.968 8.25 7.259A47.354 47.354 0 0 0 311.573 390.945ZM421.964 494.728a2.135 2.135 0 0 1-1.7 0.819H73.581a2.163 2.163 0 0 1-2.112-2.653c4.851-20.843 21.455-71.412 73.871-117.084 5.661 7.859 13.538 15.051 23.441 21.253 20.963 13.13 48.715 20.362 78.142 20.362a162.035 162.035 0 0 0 55.4-9.4 17.282 17.282 0 0 0 0.294 2.631 17.067 17.067 0 0 0 8.6 11.681c7.055 3.837 15.75 5.782 25.841 5.782a94.415 94.415 0 0 0 12.308-0.855 31.263 31.263 0 0 0 0.356 8.662 17.371 17.371 0 0 0 16.791 14.338h0.274c6.814 0 12.372-2.908 16.96-6.861 0.83 9.151 3.82 19.8 12.522 25.526a6 6 0 0 0 6.594-10.026c-4.453-2.929-6.355-9.51-7.026-15.938a29.467 29.467 0 0 0 10.236 6.12 198.891 198.891 0 0 1 16.293 43.8A2.129 2.129 0 0 1 421.964 494.728Zm-9.948-103.563a1.158 1.158 0 0 0 0.526 2.175 1.27 1.27 0 0 0 0.209-0.017 113.293 113.293 0 0 1 17.925-1.534c12.453 0 26.293 2.547 34.065 12.19a5.179 5.179 0 0 1-1.5 7.819c-5.83 3.171-12.9 4.325-20.109 4.325-12.146 0-24.686-3.278-32.335-5.718a1.229 1.229 0 0 0-0.373-0.06 1.16 1.16 0 0 0-0.735 2.03c4.961 4.438 10.786 11.921 8.933 21.624a5.222 5.222 0 0 1-5.068 4.269H413.4c-8.538 0-15.246-10.311-20.157-17.443a3.655 3.655 0 0 0-6.43-0.024c-4.954 7.133-11.471 17.467-20.02 17.467h-0.128a5.365 5.365 0 0 1-5.128-4.472c-1.734-9.6 4.038-17.009 8.964-21.416a1.163 1.163 0 0 0-0.737-2.034 1.22 1.22 0 0 0-0.373 0.06c-7.652 2.44-20.184 5.716-32.327 5.716-7.208 0-14.28-1.155-20.109-4.325a5.179 5.179 0 0 1-1.5-7.819c7.773-9.644 21.611-12.19 34.065-12.19a113.279 113.279 0 0 1 17.924 1.534 1.291 1.291 0 0 0 0.21 0.017 1.158 1.158 0 0 0 0.526-2.175c-15.3-8.274-49.243-29.259-55.987-55.643a5.181 5.181 0 0 1 4.881-6.434c0.234 0 0.466-0.008 0.7-0.008 26.335 0 50.463 33.015 60.334 48.505a1.109 1.109 0 0 0 0.953 0.542 1.154 1.154 0 0 0 1.138-1.466c-5.29-19.471-15.023-66.319 6.273-88.588a5.013 5.013 0 0 1 7.249 0c21.3 22.269 11.563 69.117 6.273 88.588a1.154 1.154 0 0 0 1.137 1.466 1.109 1.109 0 0 0 0.954-0.542c9.871-15.491 34-48.508 60.334-48.5 0.231 0 0.467 0 0.7 0.008A5.181 5.181 0 0 1 468 335.522C461.259 361.906 427.313 382.891 412.016 391.165Z" fill="#454545" data-fill-palette-color="accent"></path></svg></g></svg></g><g></g></svg></g><defs></defs></svg><rect width="395.52" height="218.0532954084926" fill="none" stroke="none" visibility="hidden"></rect></g></svg></g></svg>