<?xml version="1.0" ?>
<!DOCTYPE svg  PUBLIC '-//W3C//DTD SVG 1.1//EN'  'http://www.w3.org/Graphics/SVG/1.1/DTD/svg11.dtd'>
<!-- Uploaded to: SVG Repo, www.svgrepo.com, Generator: SVG Repo Mixer Tools -->
<svg fill="#000000" width="800px" height="800px" viewBox="0 0 512 512" version="1.1" xml:space="preserve" xmlns="http://www.w3.org/2000/svg" xmlns:xlink="http://www.w3.org/1999/xlink">
<g id="_x36_41_x2C__Country_x2C__flag_x2C__usa_x2C__flags">
<g>
<g>
<g>
<g>
<g>
<path d="M439.026,330.238c-38.57,0-57.415-24.601-75.663-48.419c-20.048-26.168-40.778-53.227-90.327-59.512        c-5.479-0.695-9.356-5.7-8.662-11.179c0.696-5.479,5.699-9.355,11.18-8.662c57.831,7.335,83.256,40.523,103.687,67.19        c17.93,23.404,32.094,41.898,63.092,40.507c5.51-0.24,10.189,4.027,10.436,9.545c0.246,5.517-4.027,10.189-9.545,10.436        C441.8,330.207,440.399,330.238,439.026,330.238z"/>
</g>
<g>
<path d="M455.267,304.848c-38.57,0-57.415-24.601-75.663-48.419c-20.048-26.168-40.778-53.227-90.327-59.512        c-5.479-0.695-9.356-5.7-8.662-11.179c0.696-5.479,5.698-9.359,11.18-8.662c57.831,7.336,83.256,40.523,103.686,67.19        c17.931,23.403,32.102,41.895,63.093,40.507c5.514-0.253,10.189,4.027,10.436,9.545c0.246,5.517-4.027,10.189-9.545,10.436        C458.04,304.816,456.64,304.848,455.267,304.848z"/>
</g>
<g>
<path d="M471.434,279.576c-38.571,0-57.418-24.602-75.666-48.421c-1.244-1.624-2.497-3.259-3.767-4.902        c-3.378-4.37-2.573-10.65,1.797-14.027c4.369-3.377,10.648-2.574,14.027,1.797c1.287,1.665,2.558,3.323,3.818,4.969        c17.931,23.405,32.097,41.901,63.094,40.509c5.503-0.243,10.189,4.027,10.436,9.545s-4.027,10.189-9.545,10.436        C474.205,279.545,472.807,279.576,471.434,279.576z"/>
</g>
<g>
<path d="M422.227,356.421c-38.513,0-57.53-24.348-75.921-47.895c-20.225-25.894-41.138-52.669-90.708-58.958        c-3.402-0.432-6.345-2.576-7.799-5.681s-1.214-6.739,0.633-9.627l66.009-103.197c2.082-3.254,5.847-5.021,9.683-4.532        c57.83,7.335,83.257,40.523,103.687,67.19c17.371,22.673,31.092,40.582,59.773,40.582c1.084,0,2.2-0.025,3.318-0.075        c3.727-0.163,7.242,1.759,9.107,4.994c1.866,3.234,1.774,7.239-0.238,10.384l-65.317,102.117        c-1.753,2.74-4.729,4.456-7.979,4.602C425.049,356.389,423.619,356.421,422.227,356.421z M273.366,232.396        c47.197,10.684,70.022,39.905,88.701,63.82c17.193,22.013,30.844,39.493,58.447,40.184l53.245-83.243        c-29.526-5.116-45.913-26.502-61.825-47.271c-19.191-25.05-39.008-50.917-84.131-58.595L273.366,232.396z"/>
</g>
<g>
<path d="M169.976,385.462c-1.844,0-3.71-0.51-5.379-1.577c-4.653-2.976-6.012-9.16-3.036-13.813l97.648-152.66        c2.975-4.652,9.158-6.014,13.813-3.036c4.652,2.976,6.012,9.16,3.035,13.813L178.41,380.85        C176.501,383.833,173.273,385.462,169.976,385.462z"/>
</g>
<g>
<path d="M382.93,252.622c-1.844,0-3.71-0.51-5.379-1.578c-4.652-2.976-6.012-9.16-3.035-13.813l30.793-48.141        c2.975-4.651,9.158-6.014,13.813-3.035c4.652,2.976,6.012,9.16,3.035,13.813l-30.793,48.141        C389.455,250.992,386.228,252.622,382.93,252.622z"/>
</g>
</g>
<g>
<g>
<path d="M73.669,330.238c-1.375,0-2.771-0.031-4.197-0.095c-5.517-0.246-9.791-4.919-9.544-10.436        c0.247-5.519,4.944-9.791,10.436-9.545c31.011,1.387,45.162-17.103,63.091-40.507c20.43-26.667,45.855-59.854,103.687-67.19        c5.477-0.693,10.484,3.183,11.179,8.662c0.695,5.479-3.183,10.484-8.662,11.179c-49.549,6.285-70.279,33.344-90.327,59.512        C131.085,305.637,112.235,330.238,73.669,330.238z"/>
</g>
<g>
<path d="M57.428,304.848c-1.375,0-2.771-0.031-4.197-0.095c-5.517-0.246-9.791-4.919-9.544-10.436        c0.247-5.519,4.939-9.795,10.436-9.545c31.008,1.386,45.162-17.103,63.092-40.507c20.43-26.667,45.855-59.854,103.687-67.19        c5.474-0.697,10.484,3.183,11.179,8.662c0.695,5.479-3.183,10.484-8.662,11.179c-49.549,6.286-70.279,33.344-90.327,59.512        C114.845,280.246,95.994,304.848,57.428,304.848z"/>
</g>
<g>
<path d="M41.261,279.576c-1.375,0-2.769-0.031-4.194-0.095c-5.518-0.246-9.791-4.918-9.545-10.436        c0.247-5.518,4.929-9.795,10.436-9.545c30.989,1.385,45.162-17.104,63.092-40.508c1.261-1.646,2.532-3.305,3.819-4.97        c3.377-4.37,9.658-5.175,14.027-1.797c4.37,3.377,5.174,9.658,1.797,14.027c-1.27,1.643-2.523,3.279-3.767,4.903        C98.68,254.973,79.827,279.576,41.261,279.576z"/>
</g>
<g>
<path d="M90.479,356.421c-0.005,0-0.008,0-0.012,0c-1.396,0-2.825-0.032-4.248-0.096c-3.25-0.146-6.226-1.861-7.979-4.602        L12.923,249.607c-2.012-3.146-2.104-7.15-0.238-10.384c1.866-3.234,5.36-5.154,9.108-4.994        c1.119,0.05,2.235,0.075,3.317,0.075c28.682,0,42.402-17.909,59.773-40.583c20.43-26.667,45.856-59.854,103.688-67.19        c3.837-0.486,7.602,1.279,9.683,4.532l66.008,103.197c1.848,2.888,2.087,6.522,0.633,9.627        c-1.453,3.105-4.396,5.25-7.798,5.681c-49.568,6.288-70.481,33.064-90.706,58.959        C148.002,332.073,128.985,356.421,90.479,356.421z M38.935,253.156L92.181,336.4c27.606-0.686,41.253-18.167,58.448-40.183        c18.679-23.916,41.503-53.138,88.7-63.821l-54.438-85.106c-45.124,7.678-64.94,33.544-84.131,58.594        C84.848,226.653,68.461,248.04,38.935,253.156z"/>
</g>
<g>
<path d="M342.719,385.462c-3.298,0-6.525-1.629-8.434-4.612l-97.648-152.661c-2.976-4.652-1.617-10.836,3.036-13.812        c4.653-2.975,10.836-1.617,13.813,3.036l97.647,152.66c2.977,4.652,1.617,10.837-3.035,13.813        C346.429,384.952,344.563,385.462,342.719,385.462z"/>
</g>
<g>
<path d="M129.765,252.622c-3.297,0-6.525-1.629-8.434-4.613l-30.792-48.141c-2.976-4.652-1.617-10.836,3.036-13.813        c4.652-2.974,10.836-1.616,13.813,3.036l30.792,48.141c2.976,4.652,1.617,10.836-3.036,13.813        C133.475,252.111,131.609,252.622,129.765,252.622z"/>
</g>
</g>
</g>
</g>
</g>
</g>
<g id="Layer_1"/>
</svg>